<svg xmlns="http://www.w3.org/2000/svg" width="115" height="149" viewBox="0 0 115 149" fill="none">
<path d="M97.1317 52.047L96.6413 51.5894L80.3278 64.6664L81.047 65.2875C89.7432 72.3165 94.5817 82.7454 94.2875 93.8935C93.7971 113.476 77.4181 128.973 57.868 128.45C46.7198 128.155 36.5851 122.794 30.0466 113.771L29.8831 113.574C21.6446 128.155 31.5505 141.821 31.6485 141.952L31.6158 141.984C39.4294 146.332 48.289 148.752 57.3122 148.981C88.2067 149.798 114.001 125.311 114.786 94.4166C115.276 78.4299 108.803 62.9664 97.1317 52.047Z" fill="white"/>
<path d="M70.7816 13.5347C75.3913 26.154 61.3008 36.2233 53.6834 43.6118C42.5679 54.335 27.2351 64.9601 16.9697 81.9275C0.950308 108.441 18.5389 130.541 20.4351 133.418C22.9851 136.688 25.9928 138.976 28.3467 140.447C28.3467 140.447 17.3293 123.709 26.9082 103.799C33.1198 90.8853 53.7161 77.2852 69.4739 64.2408C85.3625 51.1311 91.901 40.081 80.4259 25.729L70.7816 13.5347Z" fill="white"/>
<path d="M54.5987 0C54.9583 5.88466 51.2641 8.17313 39.2332 22.1329C23.7042 38.708 3.631 62.0178 0.688671 78.7237C-1.37096 90.395 1.27714 103.734 7.45603 110.435C0.754055 103.145 4.9387 84.0199 23.6062 65.0255L51.1987 38.8061C59.8295 30.7637 71.9258 19.3213 63.3276 10.2001L54.5987 0Z" fill="white"/>
</svg>