<svg width="77" height="38" viewBox="0 0 77 38" fill="none" xmlns="http://www.w3.org/2000/svg">
<path d="M38.3042 16.1547C38.7593 11.6638 41.2029 9.00183 41.2029 6.41376C41.2029 4.5294 40.5026 2.91123 38.3042 0.478516C36.1057 2.91123 35.4046 4.5294 35.4046 6.41376C35.4046 9.00183 37.8482 11.6638 38.3042 16.1547ZM33.5697 15.5845C32.4117 16.6065 30.147 15.9473 30.147 13.4726C30.147 12.0736 31.6048 10.8803 33.0155 10.8803C35.8018 10.8803 37.0731 13.8412 37.1479 15.2184C37.2058 16.305 36.7137 18.0206 34.9041 18.0433C35.7514 17.6284 36.0335 16.609 35.9504 15.8835C35.8538 15.0236 35.303 13.8983 34.0963 13.8983C33.427 13.8983 32.9223 14.3325 32.9223 14.8044C32.9215 15.2234 33.1725 15.5719 33.5697 15.5845ZM43.0411 15.5845C44.1991 16.6065 46.463 15.9473 46.463 13.4726C46.463 12.0736 45.0069 10.8803 43.5962 10.8803C40.8091 10.8803 39.5377 13.8412 39.463 15.2184C39.4051 16.305 39.8971 18.0206 41.7068 18.0433C40.8578 17.6284 40.5765 16.609 40.6596 15.8835C40.7562 15.0236 41.3071 13.8983 42.5146 13.8983C43.1839 13.8983 43.6869 14.3325 43.6869 14.8044C43.6869 15.2234 43.4383 15.5719 43.0411 15.5845Z" fill="#EE2D24"/>
<path d="M16.4786 22.7734H18.5477V37.3202H16.4786V22.7734ZM13.2196 37.3202H11.1505V30.986H2.49112V37.3202H0.422852V22.7734H2.49112V29.1084H11.1505V22.7734H13.2196V37.3202ZM70.3711 29.7911L76.5768 37.3202H74.0592L69.1124 31.3051L64.0991 37.3202H61.5615L67.8318 29.7911L62.009 22.7734H64.5467L69.1124 28.319L73.6553 22.7734H76.1728L70.3711 29.7911Z" fill="#231F20"/>
<path d="M54.4322 22.582C59.2321 22.582 62.2602 25.9939 62.2602 30.0464C62.2602 33.9713 59.3169 37.5125 54.3894 37.5125C49.6339 37.5125 46.626 33.9932 46.626 30.0464C46.626 26.0157 49.7196 22.582 54.4322 22.582ZM54.4322 35.5929C57.6962 35.5929 60.1063 33.2248 60.1063 30.0464C60.1063 26.8479 57.6962 24.5008 54.4322 24.5008C51.1916 24.5008 48.7807 26.8479 48.7807 30.0464C48.7807 33.2248 51.1916 35.5929 54.4322 35.5929Z" fill="#231F20"/>
<path d="M44.715 33.6403C43.6947 34.8512 42.1361 35.5927 40.3106 35.5927C37.0675 35.5927 34.6575 33.2246 34.6575 30.0462C34.6575 26.8477 37.0675 24.5006 40.3106 24.5006C42.0857 24.5006 43.6099 25.1959 44.6293 26.3455L45.721 24.5082C44.3824 23.3158 42.5367 22.5818 40.3114 22.5818C35.5971 22.5818 32.5035 26.0155 32.5035 30.0462C32.5035 33.993 35.5106 37.5123 40.2677 37.5123C42.5955 37.5123 44.4807 36.7221 45.8209 35.4743L44.715 33.6403ZM29.8567 25.4882C28.6928 24.4956 27.2745 24.2907 26.2929 24.2907C24.8132 24.2907 23.5159 24.9482 23.5159 26.186C23.5159 28.9798 30.95 28.9882 30.95 33.6168C30.95 36.6314 27.8732 37.6324 25.5044 37.5123C23.8929 37.4308 22.6879 37.1168 21.4106 36.2729V34.2037C22.6845 35.0284 23.8677 35.4659 25.2188 35.5742C26.7354 35.696 28.9078 35.3391 28.9078 33.5496C28.9078 30.5425 21.4106 30.4518 21.4106 26.4639C21.4106 24.0959 23.5075 22.5776 26.0577 22.5776C27.7053 22.5776 28.8045 22.9337 29.8508 23.5307L29.8567 25.4882Z" fill="#231F20"/>
</svg>
