<svg width="92" height="15" viewBox="0 0 92 15" fill="none" xmlns="http://www.w3.org/2000/svg">
<g clip-path="url(#clip0)">
<path d="M58.6715 14.5989C56.8695 14.5353 56.4352 13.3628 56.4352 12.6203V2.16577C56.4352 1.42334 56.8695 0.250871 58.6715 0.187165C58.7058 0.187272 58.7375 0.169458 58.7547 0.14046C58.7718 0.111462 58.7718 0.0757037 58.7547 0.0467058C58.7375 0.0177075 58.7058 0 58.6715 0H50.573C50.5203 0.000216026 50.4775 0.0420431 50.4775 0.093583C50.4775 0.145123 50.5203 0.18695 50.573 0.187114V0.187165C52.375 0.250868 52.8093 1.42334 52.8093 2.16577V12.6203C52.8093 13.3628 52.375 14.5353 50.573 14.5989C50.5203 14.5991 50.4775 14.6409 50.4775 14.6924C50.4775 14.744 50.5203 14.7858 50.573 14.786H58.6715C58.7058 14.786 58.7375 14.7683 58.7547 14.7393C58.7718 14.7104 58.7718 14.6746 58.7547 14.6456C58.7375 14.6166 58.7058 14.5988 58.6715 14.5989Z" fill="white"/>
<path d="M49.4752 0H36.4779C36.4436 0 36.4119 0.0177075 36.3947 0.0467058C36.3775 0.0757037 36.3775 0.111462 36.3947 0.14046C36.4119 0.169458 36.4436 0.187272 36.4779 0.187165C38.2367 0.250868 38.6491 1.45008 38.6491 2.1925V12.6203C38.6491 13.3628 38.2367 14.5353 36.4779 14.5989C36.4436 14.5988 36.4119 14.6166 36.3947 14.6456C36.3775 14.6746 36.3775 14.7104 36.3947 14.7393C36.4119 14.7683 36.4436 14.786 36.4779 14.786H44.5546V14.7852C44.6058 14.7836 44.6464 14.7425 44.6464 14.6924C44.6464 14.6424 44.6058 14.6013 44.5546 14.5996V14.5989C42.5572 14.5353 42.2793 13.4052 42.2793 12.6203V7.62033C42.286 7.56417 42.3313 7.51989 42.3888 7.51337H43.0132C45.2074 7.51337 45.661 8.32754 46.2473 10.4278C46.2639 10.4813 46.2901 10.5214 46.343 10.5214C46.3959 10.5213 46.4388 10.4795 46.4388 10.4278V4.33154C46.4388 4.27985 46.3959 4.23796 46.343 4.23795C46.2901 4.23795 46.2639 4.27804 46.2473 4.33154C45.661 6.41045 45.18 7.21924 43.0132 7.21924H42.3888C42.3313 7.21265 42.286 7.16837 42.2793 7.11228V0.935824C42.2793 0.561496 42.6624 0.267374 43.155 0.267374H44.1639C46.9212 0.267374 48.4079 1.39211 49.3121 5.32084C49.3168 5.36838 49.3591 5.4038 49.4079 5.40105C49.4632 5.39472 49.5046 5.34849 49.5037 5.2941L49.4752 0Z" fill="white"/>
<path d="M30.4841 14.5991V14.5989C28.7272 14.5351 28.5063 13.3625 28.5063 12.6203V2.16577C28.5063 1.42374 28.7272 0.250724 30.4851 0.187165V0.186946C30.5371 0.185485 30.5788 0.144422 30.5799 0.0935817C30.5799 0.0423063 30.5375 0.000640255 30.4851 0.00018865V0H25.1714C25.0856 0.00142452 25.008 0.0503308 24.9713 0.126162L20.8799 10.2139L16.709 0.120728C16.6553 0 16.5918 0 16.5563 0H3.11999C3.0671 0 3.02421 0.0418981 3.02421 0.093583C3.02555 0.144717 3.06766 0.185859 3.11999 0.187166C4.68261 0.250717 5.32085 1.39036 5.32085 2.1925V9.17107C5.36247 13.0514 5.19976 14.6257 3.63993 14.5989C3.20027 14.5913 2.24135 14.3315 2.24135 13.5243C2.24135 12.3806 3.49332 12.6358 3.49332 11.3302C3.49332 10.4369 2.74308 9.91976 1.80552 9.91976C0.984704 9.91976 0 10.6757 0 11.8898C0 13.4491 1.86081 14.893 3.94094 14.893C6.56804 14.893 8.96674 13.7964 8.96674 9.11759V2.1925C8.96674 1.45053 9.27717 0.213901 10.837 0.187165C12.9714 0.133683 13.3819 1.01603 13.765 1.89839C13.9676 2.36844 18.3496 12.9958 19.0035 14.5818C19.0478 14.6892 19.1135 14.7803 19.1843 14.7803H19.4115C19.4817 14.7803 19.5466 14.691 19.5909 14.585L24.9026 1.4843L24.9035 12.6203C24.9035 13.4049 24.3875 14.5351 23.0418 14.5989C22.9892 14.5996 22.9467 14.641 22.946 14.6925C22.946 14.7442 22.9889 14.786 23.0418 14.786H30.4841V14.7859C30.5361 14.7845 30.578 14.7434 30.5789 14.6925C30.5792 14.6678 30.5693 14.644 30.5515 14.6264C30.5337 14.6089 30.5093 14.599 30.4841 14.5991Z" fill="white"/>
<path d="M15.8447 14.5988C13.696 14.3441 12.8345 13.1789 12.8345 11.0159C12.8343 10.9643 12.7915 10.9226 12.7387 10.9226C12.686 10.9226 12.6431 10.9643 12.6429 11.0159C12.6429 13.1789 11.8373 14.3655 9.79698 14.5988C9.74578 14.6026 9.70508 14.6423 9.70117 14.6924C9.70117 14.7172 9.71128 14.741 9.72921 14.7586C9.74721 14.7761 9.77161 14.786 9.79698 14.786H15.8447C15.8976 14.786 15.9405 14.7441 15.9405 14.6924C15.9388 14.6414 15.8969 14.6005 15.8447 14.5988Z" fill="white"/>
<path d="M91.2087 0H85.4343C85.4004 0 85.3685 0.0177075 85.3515 0.0467058C85.3339 0.0757037 85.3339 0.111462 85.3515 0.14046C85.3685 0.169458 85.4004 0.187272 85.4343 0.187165C87.6296 0.42082 88.2804 1.75308 88.2804 3.87699V9.70585L80.5783 0.120768C80.485 -9.71815e-09 80.4328 0.00460638 80.395 0.000363626L80.3944 0H69.8637C69.8291 0 69.7978 0.0177075 69.7802 0.0467058C69.7633 0.0757037 69.7633 0.111462 69.7802 0.14046C69.7978 0.169458 69.8291 0.187272 69.8637 0.187165C72.0589 0.42082 72.7098 1.75308 72.7098 3.87699V9.70585L65.0072 0.120204C65.0072 0.120204 64.9188 0.000363626 64.8234 0.000363626L64.8227 0H59.7933C59.759 0 59.7273 0.0177075 59.7101 0.0467058C59.693 0.0757037 59.693 0.111462 59.7101 0.14046C59.7273 0.169458 59.759 0.187272 59.7933 0.187165C61.6627 0.314727 62.2562 1.46561 62.2562 2.78221V10.8823C62.2562 13.0487 61.8367 14.3652 59.7933 14.5989C59.759 14.5988 59.7273 14.6166 59.7101 14.6456C59.693 14.6746 59.693 14.7104 59.7101 14.7393C59.7273 14.7683 59.759 14.7862 59.7933 14.786H65.5124C65.547 14.7862 65.5789 14.7683 65.5959 14.7393C65.6128 14.7104 65.6128 14.6746 65.5959 14.6456C65.5789 14.6166 65.547 14.5988 65.5124 14.5989C63.2955 14.3862 62.7213 13.0487 62.7213 10.8823V2.56684L72.6276 14.8976C72.6746 14.9555 72.7437 14.9924 72.8193 15H73.0378C73.0378 15 73.1474 15 73.1474 14.8663V3.87699C73.1474 1.75308 73.5583 0.187167 75.5011 0.187167C77.3891 0.187167 77.8267 1.46561 77.8267 2.78221V10.8823C77.8267 13.0487 77.4074 14.3652 75.3641 14.5989C75.3296 14.5988 75.2983 14.6166 75.2807 14.6456C75.2637 14.6746 75.2637 14.7104 75.2807 14.7393C75.2983 14.7683 75.3296 14.7862 75.3641 14.786H81.083V14.7859C81.1359 14.7854 81.1783 14.7438 81.1783 14.6924C81.177 14.6418 81.1352 14.601 81.083 14.5991V14.5988C78.8663 14.3862 78.2924 13.0487 78.2924 10.8823V2.56684L88.1983 14.8981C88.2459 14.9558 88.3144 14.9925 88.39 15H88.6091C88.6378 15.0005 88.6665 14.9895 88.6867 14.9693C88.7076 14.9491 88.7187 14.9215 88.718 14.893V3.87699C88.718 1.75308 89.2659 0.187167 91.2087 0.187167C91.2426 0.187273 91.2746 0.16946 91.2915 0.140461C91.3091 0.111463 91.3091 0.075705 91.2915 0.0467067C91.2746 0.0177085 91.2426 0 91.2087 0Z" fill="white"/>
</g>
<defs>
<clipPath id="clip0">
<rect width="91.3043" height="15" fill="white"/>
</clipPath>
</defs>
</svg>
