<svg width="157" height="24" viewBox="0 0 157 24" fill="none" xmlns="http://www.w3.org/2000/svg">
<path d="M81.7353 14.0609L79.1802 21.4957L76.6773 14.0609H73.5227L77.0684 23.7391H81.3181L84.8378 14.0609H81.7353ZM99.4381 15.6261L99.4902 14.0609H96.5702V23.7391H99.412V18.5217C99.412 17.1652 99.8813 16.6696 101.237 16.6696H103.297V14.0609H102.567C100.95 14.0609 100.168 14.5826 99.4381 15.6261ZM95.6316 18.887C95.6577 15.4174 92.9983 13.8261 90.2086 13.8261C87.4972 13.8261 84.5771 15.287 84.5771 18.913C84.5771 22.5391 87.6014 24 90.4172 24C92.2162 24 93.9369 23.6087 95.2405 22.2783L93.7283 20.4261C92.9201 21.1565 92.2683 21.5478 90.4172 21.5478C88.8268 21.5478 87.8882 20.8696 87.6015 19.6957H95.5794C95.6316 19.4609 95.6316 19.1739 95.6316 18.887ZM87.6275 17.8435C87.9143 16.6696 88.7747 16.0957 90.2086 16.0957C91.5644 16.0957 92.3726 16.7217 92.6333 17.8435H87.6275ZM109.893 17.6609L108.276 17.5826C107.234 17.5304 106.764 17.4 106.764 16.9304C106.764 16.3043 107.781 16.0956 109.006 16.1217C110.649 16.1217 111.353 16.5913 111.979 17.1913L113.699 15.3913C112.657 14.3217 111.301 13.8 109.033 13.8C106.139 13.8 104.027 14.9478 104.027 17.0087C104.027 19.2261 106.008 19.8783 108.198 19.9826L109.632 20.0609C110.701 20.113 111.144 20.2174 111.144 20.713C111.144 21.4174 110.101 21.6783 108.876 21.6522C107.181 21.6522 106.269 21.2348 105.513 20.4261L103.792 22.2261C104.705 23.4 106.347 23.9739 108.798 23.9739C111.718 23.9739 113.882 22.7739 113.882 20.5826C113.882 18.4435 112.135 17.7652 109.893 17.6609ZM151.113 13.8C148.453 13.8 145.611 15.2609 145.611 18.887C145.611 22.513 148.557 23.9739 151.347 23.9739C153.094 23.9739 154.815 23.5826 156.066 22.2522L154.58 20.4C153.798 21.1304 153.146 21.5217 151.347 21.5217C149.783 21.5217 148.87 20.8435 148.61 19.6696H156.405C156.431 19.4087 156.431 19.1217 156.431 18.8609C156.457 15.4174 153.876 13.8 151.113 13.8ZM148.636 17.8435C148.922 16.6696 149.757 16.0957 151.165 16.0957C152.494 16.0957 153.303 16.7217 153.537 17.8435H148.636ZM118.523 11.8696H115.681V13.9304H114.377V16.4348H115.681V20.5826C115.681 22.8522 116.776 23.7391 118.731 23.7391H121.338V21.2348H119.618C118.783 21.2348 118.523 20.9739 118.523 20.1391V16.4348H121.338V13.9304H118.523V11.8696ZM127.309 13.8261C124.597 13.8261 121.73 15.287 121.73 18.887C121.73 22.487 124.623 23.9478 127.309 23.9478C130.02 23.9478 132.888 22.513 132.888 18.887C132.914 15.287 129.994 13.8261 127.309 13.8261ZM127.309 21.3913C125.536 21.3913 124.676 20.4 124.676 18.887C124.676 17.3478 125.536 16.3826 127.335 16.3826C129.108 16.3826 129.994 17.3739 129.994 18.887C129.968 20.4261 129.082 21.3913 127.309 21.3913ZM140.319 13.8C138.65 13.8 137.373 14.5304 136.721 15.4696L136.773 13.9826H133.827V23.7391H136.721V18.6C136.721 17.087 137.503 16.4348 139.302 16.4348C140.84 16.4348 141.518 17.087 141.518 18.6V23.7391H144.412V17.9739C144.412 15.313 143.03 13.8 140.319 13.8ZM17.2856 23.7391H21.6396L47.5811 10.6696H43.2532L17.2856 23.7391ZM34.5974 10.6696L8.65586 23.7391H12.9838L38.9253 10.6696H34.5974ZM70.1594 23.7391H73.0534V10.6696H70.1594V23.7391ZM47.1119 0L0 23.7391H4.32793L51.4398 0H47.1119ZM43.0186 0H29.8001L3.83256 13.0696H16.8424L43.0186 0ZM66.0922 13.0696H68.9601V10.6435H66.0661L66.0922 13.0696ZM59.4699 15.9391L57.1235 15.8348C55.507 15.7565 54.5684 15.6522 54.5684 14.8435C54.5684 14.0087 55.7416 13.4348 58.0099 13.4348C60.4346 13.4348 61.3471 13.8261 62.1814 14.8174L64.6843 13.2C63.485 11.4261 61.2949 10.6696 58.2706 10.6696C54.9073 10.6696 51.5701 11.8957 51.5701 14.8696C51.5701 17.6087 53.8123 18.4957 57.0192 18.6261L59.3656 18.7304C60.9821 18.8087 61.8164 18.9391 61.8164 19.8C61.8164 20.6609 60.4606 21.2348 58.3749 21.2348C55.7156 21.2348 54.5163 20.7652 53.682 19.3826L51.2051 21C52.5869 23.3217 54.5684 23.9739 58.2185 23.9739C61.5557 23.9739 64.9189 22.8 64.9189 19.7217C64.8668 16.9304 62.7028 16.0957 59.4699 15.9391ZM68.9601 14.0609H66.0661V23.7391H68.9601V14.0609Z" fill="white"/>
</svg>
