<svg width="211" height="42" viewBox="0 0 211 42" fill="none" xmlns="http://www.w3.org/2000/svg">
<g clip-path="url(#clip0_1427_1034)">
<path d="M2.20101 20.8848C3.33127 20.8848 4.40203 20.8272 4.78869 20.7695C5.02664 21.893 5.50254 23.6214 6.21638 25.8683C6.54356 27.107 8.50663 33.0123 9.25021 35.0864L14.9907 21.8354C15.3774 21 15.4666 20.856 15.6153 20.856C15.764 20.856 16.002 21.3457 16.3292 21.9794L21.683 35C22.605 32.465 23.9435 29.0082 24.7763 26.4444C25.6091 23.9383 26.1147 22.2099 26.3527 20.8272C26.6799 20.856 27.245 20.8848 27.7209 20.8848C28.7619 20.8848 29.6245 20.8272 30.0409 20.7695C29.565 21.8066 28.524 23.9959 27.364 27.0494C26.6204 28.8642 24.2409 35.144 22.1886 40.5021C21.7127 41.6255 21.5045 42.0288 21.2963 42.0288C21.0881 42.0288 20.8502 41.5679 20.4635 40.7325L14.9907 27.3374C13.4738 30.5638 10.7076 37.2469 9.25021 40.4444C8.71483 41.5679 8.44714 42 8.26868 42C8.06047 42 7.9415 41.6255 7.40612 40.2716L2.64717 26.7613C1.78461 24.428 0.832816 22.0658 0 20.8272C0.327178 20.856 1.15999 20.8848 2.20101 20.8848Z" fill="#F2F2F2"/>
<path d="M39.7071 28.7778C39.7071 24.8313 39.6178 21.6914 39.3799 20.8272C39.7071 20.8848 40.5101 20.8848 41.0753 20.8848C42.3245 20.8848 43.2465 20.8272 43.5142 20.7695C43.3953 21.8066 43.2465 24.8889 43.2465 28.7778V33.6173C43.2465 36.93 43.3655 40.7613 43.5737 41.5679C43.2465 41.5391 42.5624 41.5103 41.8188 41.5103C40.9563 41.5103 39.7963 41.5679 39.4394 41.6255C39.5881 40.5309 39.7071 37.1317 39.7071 33.6173V28.7778Z" fill="#F2F2F2"/>
<path d="M56.7798 28.7778C56.7798 24.8313 56.6013 21.6914 56.4229 20.8272C56.75 20.856 57.6423 20.8848 58.2075 20.8848C59.2485 20.8848 60.2895 20.856 60.6167 20.7695C60.4977 21.8354 60.3192 24.8601 60.3192 28.6626V33.358C60.3192 38.3128 60.3787 38.9753 60.5274 39.0905C60.6464 39.2346 60.9141 39.2922 61.271 39.321C61.8659 39.3786 62.788 39.4074 63.9777 39.4074C66.7736 39.4074 68.2607 39.177 69.0936 38.7737C68.7664 39.465 68.4095 41.0782 68.231 41.6543C68.0823 41.7407 67.6659 41.7407 66.2977 41.7407C62.1038 41.7407 60.4382 41.5679 58.4454 41.5679C57.4639 41.5679 56.869 41.5967 56.4823 41.6255C56.6013 40.6461 56.7798 37.679 56.7798 33.6749V28.7778Z" fill="#F2F2F2"/>
<path d="M78.6416 28.749C78.6416 24.0247 78.4632 21.6337 78.3145 20.7984C78.6416 20.8272 79.4447 20.856 80.1586 20.856C80.9319 20.856 82.5975 20.7695 84.7688 20.7407C89.0221 20.7695 92.9482 21.3457 95.6251 23.9959C97.0528 25.4074 98.3318 27.6831 98.3318 30.9671C98.3318 34.4239 96.8744 37.0165 95.2682 38.6296C93.7513 40.0988 91.1636 41.856 86.0775 41.856C84.8878 41.856 83.7278 41.7984 82.7462 41.7119C81.1996 41.5967 80.0991 41.4239 78.4334 41.5391C78.5227 40.3292 78.6714 37.8519 78.6714 33.7037V28.749H78.6416ZM82.2108 32.465C82.2108 35.3745 82.2406 36.9589 82.2703 37.6214C82.3001 38.4568 82.3298 38.9177 82.4785 39.0617C82.8355 39.3786 84.4119 39.7243 86.3749 39.7243C88.4867 39.7243 90.5093 39.2922 92.0559 37.8807C93.5728 36.5268 94.4354 34.2798 94.4354 31.7161C94.4354 29.5844 94.019 27.5967 92.6508 25.8683C90.9257 23.7078 87.9513 22.8148 84.739 22.8148C83.7278 22.8148 82.776 22.93 82.3893 23.0453C82.3001 23.1029 82.2703 23.1605 82.2703 23.2469C82.2108 23.7942 82.2108 25.9547 82.2108 28.5761V32.465Z" fill="#F2F2F2"/>
<path d="M118.141 28.7778C118.141 24.8313 118.051 21.6914 117.813 20.8272C118.141 20.8848 118.944 20.8848 119.509 20.8848C120.758 20.8848 121.68 20.8272 121.948 20.7695C121.829 21.8066 121.68 24.8889 121.68 28.7778V33.6173C121.68 36.93 121.799 40.7613 122.007 41.5679C121.68 41.5391 120.996 41.5103 120.252 41.5103C119.39 41.5103 118.23 41.5679 117.873 41.6255C118.022 40.5309 118.141 37.1317 118.141 33.6173V28.7778Z" fill="#F2F2F2"/>
<path d="M132.894 37.1605C133.816 38.3128 135.779 39.6379 138.069 39.6379C140.389 39.6379 141.49 38.3128 141.49 36.642C141.49 35.2593 140.984 34.3374 138.694 32.8683L137.266 31.9465C134.114 29.9588 133.37 28.0576 133.37 26.0412C133.37 22.9588 135.809 20.3951 140.003 20.3951C141.163 20.3951 142.144 20.5391 142.888 20.6543C143.869 20.8272 144.464 20.9136 144.673 20.9136C144.583 21.2305 144.405 23.0453 144.405 24.4856C143.84 23.8519 142.472 22.6708 139.943 22.6708C137.98 22.6708 136.791 23.8519 136.791 25.321C136.791 26.5885 137.118 27.4815 139.348 28.893L140.746 29.786C144.256 32.0041 145.119 33.6173 145.119 35.8642C145.119 37.3621 144.405 39.5226 142.353 40.8189C140.925 41.7119 139.14 42 137.772 42C135.898 42 133.638 41.5391 132.597 40.8189C132.716 40.358 132.924 38.3416 132.894 37.1605Z" fill="#F2F2F2"/>
<path d="M155.945 28.7778C155.945 24.8313 155.766 21.6914 155.588 20.8272C155.915 20.856 156.807 20.8848 157.372 20.8848C158.414 20.8848 159.455 20.856 159.782 20.7695C159.663 21.8354 159.484 24.8601 159.484 28.6626V33.358C159.484 38.3128 159.544 38.9753 159.693 39.0905C159.811 39.2346 160.079 39.2922 160.436 39.321C161.031 39.3786 161.953 39.4074 163.143 39.4074C165.939 39.4074 167.426 39.177 168.259 38.7737C167.931 39.465 167.575 41.0782 167.396 41.6543C167.247 41.7407 166.831 41.7407 165.463 41.7407C161.269 41.7407 159.603 41.5679 157.61 41.5679C156.629 41.5679 156.034 41.5967 155.647 41.6255C155.766 40.6461 155.945 37.679 155.945 33.6749V28.7778Z" fill="#F2F2F2"/>
<path d="M177.836 28.7778C177.836 24.2551 177.688 21.6337 177.479 20.8272C177.955 20.8848 178.937 20.8848 179.74 20.8848H186.403C187.206 20.8848 188.485 20.8848 189.02 20.7119C188.901 21.2593 188.723 22.4691 188.723 23.7942C188.306 23.535 187.652 23.3909 186.075 23.2469C185.124 23.1893 183.369 23.1317 181.525 23.1317C181.495 23.1317 181.406 23.1605 181.406 23.2181V29.3251C181.406 29.4115 181.465 29.4691 181.525 29.4691C182.06 29.4691 184.975 29.4691 185.897 29.4403C187.563 29.3827 188.157 29.2963 188.485 29.1811C188.306 30.0741 188.187 31.5432 188.217 32.2922C187.741 32.0329 187.235 31.8889 186.016 31.8025C185.064 31.7449 182.149 31.6872 181.495 31.6872C181.435 31.6872 181.376 31.7449 181.376 31.8025V33.3292C181.376 38.1975 181.435 38.9465 181.584 39.0617C181.673 39.1481 181.971 39.2346 182.238 39.2634C183.012 39.3498 183.785 39.3786 184.975 39.3786C187.414 39.3786 188.871 39.177 189.853 38.7449C189.555 39.6379 189.288 40.9342 189.169 41.6255C189.05 41.7119 188.693 41.7407 187.563 41.7407C183.726 41.7407 181.495 41.5391 179.978 41.5391C178.848 41.5391 177.955 41.5679 177.569 41.6255C177.658 40.6173 177.866 37.6502 177.866 33.6461V28.7778H177.836Z" fill="#F2F2F2"/>
<path d="M198.775 37.1605C199.697 38.3128 201.66 39.6379 203.95 39.6379C206.27 39.6379 207.371 38.3128 207.371 36.642C207.371 35.2593 206.865 34.3374 204.575 32.8683L203.147 31.9465C199.994 29.9588 199.251 28.0576 199.251 26.0412C199.251 22.9588 201.69 20.3951 205.884 20.3951C207.044 20.3951 208.025 20.5391 208.769 20.6543C209.75 20.8272 210.345 20.9136 210.553 20.9136C210.464 21.2305 210.286 23.0453 210.286 24.4856C209.721 23.8519 208.352 22.6708 205.824 22.6708C203.861 22.6708 202.671 23.8519 202.671 25.321C202.671 26.5885 202.999 27.4815 205.229 28.893L206.627 29.786C210.137 32.0041 211 33.6173 211 35.8642C211 37.3621 210.286 39.5226 208.233 40.8189C206.806 41.7119 205.021 42 203.653 42C201.779 42 199.519 41.5391 198.478 40.8189C198.597 40.358 198.805 38.3416 198.775 37.1605Z" fill="#F2F2F2"/>
<path d="M44.2283 10.6296C44.7934 11.3498 46.0129 12.1852 47.4703 12.1852C48.9277 12.1852 49.6118 11.3498 49.6118 10.3128C49.6118 9.44856 49.2846 8.87243 47.857 7.95062L46.9647 7.37449C45.0016 6.1358 44.5257 4.95473 44.5257 3.68724C44.5257 1.7572 46.0426 0.144033 48.66 0.144033C49.4036 0.144033 49.9985 0.230453 50.4446 0.288066C51.0395 0.403293 51.4262 0.432099 51.5749 0.432099C51.5154 0.633745 51.4262 1.7572 51.4262 2.67901C51.0693 2.27572 50.2067 1.55556 48.6303 1.55556C47.4108 1.55556 46.6672 2.30453 46.6672 3.19753C46.6672 4.00412 46.8754 4.55144 48.2734 5.44445L49.1359 5.99177C51.3369 7.37449 51.8723 8.38272 51.8723 9.79424C51.8723 10.7161 51.4262 12.0988 50.1472 12.9054C49.2549 13.4527 48.1247 13.6543 47.2918 13.6543C46.1318 13.6543 44.7042 13.3663 44.0498 12.9054C44.1093 12.6173 44.2283 11.3498 44.2283 10.6296Z" fill="#F2F2F2"/>
<path d="M64.6324 8.15226C64.6919 8.15226 64.6919 8.12346 64.6919 8.09465L62.9073 3.83128L61.2119 8.09465C61.1822 8.15226 61.1822 8.15226 61.2417 8.15226H64.6324ZM60.7658 9.56379C60.7063 9.56379 60.7063 9.59259 60.6766 9.6214C60.1709 10.9177 59.576 12.5885 59.3678 13.3951C59.1299 13.3663 58.8919 13.3663 58.3566 13.3663C57.7914 13.3663 57.2263 13.3951 57.0479 13.4239C57.5237 12.5021 58.2673 10.9753 59.1596 8.98765L62.7288 0.950618C63.0263 0.316873 63.1155 0.115227 63.2345 0.115227C63.3535 0.115227 63.4724 0.25926 63.7699 0.950618C64.0078 1.44033 65.7924 5.30041 67.3391 8.72839C68.1719 10.5432 69.1832 12.6461 69.6888 13.3663C69.2129 13.3374 68.7668 13.3374 68.5288 13.3374C67.8745 13.3374 67.1606 13.3663 66.8632 13.3951C66.5658 12.6173 65.7627 10.716 65.257 9.59259C65.2273 9.56378 65.2273 9.53498 65.1976 9.53498H60.7658V9.56379Z" fill="#F2F2F2"/>
<path d="M73.2287 0.432099C73.7938 0.432099 74.8051 0.374486 75.0133 0.345679C75.1323 0.806585 75.4297 1.69959 75.9949 3.13992C76.7682 5.06996 77.7497 7.23045 78.761 9.65021C79.6533 7.66255 80.9025 5.01235 81.7353 2.85185C82.241 1.49794 82.4492 0.806585 82.5087 0.374486C82.7764 0.403292 83.2225 0.403292 83.3712 0.403292C84.0851 0.403292 84.6205 0.374486 84.9774 0.345679C84.6799 0.777778 83.7579 2.36214 83.1928 3.57202C82.0328 6.04938 79.7723 10.6872 78.9395 12.5021C78.4338 13.5103 78.3148 13.6255 78.2256 13.6255C78.1066 13.6255 77.9877 13.4527 77.6605 12.6173C76.3815 9.6214 75.0728 6.74074 73.7938 3.74486C73.1097 2.10288 72.4851 1.06584 71.9795 0.345679C72.3959 0.432099 73.1692 0.432099 73.2287 0.432099Z" fill="#F2F2F2"/>
<path d="M91.0446 5.38683C91.0446 2.56379 90.9554 0.921811 90.8066 0.403292C91.1041 0.432099 91.6989 0.432099 92.2046 0.432099H96.3687C96.8743 0.432099 97.6774 0.432099 98.0046 0.316873C97.9451 0.662552 97.8261 1.41152 97.8261 2.24691C97.5584 2.10288 97.142 1.98765 96.1605 1.90123C95.5656 1.87243 94.4651 1.84362 93.3051 1.84362C93.2754 1.84362 93.2456 1.87243 93.2456 1.90123V5.73251C93.2456 5.79012 93.2754 5.81893 93.3051 5.81893C93.6323 5.81893 95.4466 5.81893 96.0415 5.79012C97.0825 5.76132 97.4394 5.7037 97.6476 5.64609C97.5287 6.19342 97.4692 7.11523 97.4989 7.60494C97.2015 7.4609 96.8743 7.34568 96.1307 7.28806C95.5359 7.25926 93.7215 7.23045 93.3051 7.23045C93.2754 7.23045 93.2456 7.25926 93.2456 7.28806V8.23868C93.2456 11.2922 93.2753 11.7531 93.3646 11.8107C93.4241 11.8683 93.6025 11.9259 93.781 11.9259C94.2569 11.9835 94.7328 11.9835 95.4764 11.9835C96.9933 11.9835 97.9153 11.8683 98.5102 11.5802C98.3317 12.1276 98.1533 12.9342 98.0938 13.3951C98.0343 13.4527 97.7964 13.4527 97.1123 13.4527C94.703 13.4527 93.3348 13.3374 92.3533 13.3374C91.6395 13.3374 91.1041 13.3663 90.8364 13.3951C90.8959 12.7613 91.0148 10.9177 91.0148 8.41152V5.38683H91.0446Z" fill="#F2F2F2"/>
<path d="M127.599 7.11523C127.599 4.06173 125.755 1.49794 122.751 1.49794C120.282 1.49794 118.527 3.34156 118.527 6.48148C118.527 9.76543 120.342 12.2716 123.405 12.2716C125.13 12.3004 127.599 11.177 127.599 7.11523ZM115.999 7C115.999 3.54321 118.379 0.144033 123.197 0.144033C127.48 0.144033 130.127 3.0535 130.127 6.5679C130.127 10.5432 127.48 13.6543 122.959 13.6543C118.081 13.6543 115.999 10.0823 115.999 7Z" fill="#F2F2F2"/>
<path d="M137.652 0.432099C138.396 0.432099 138.961 0.403293 139.288 0.374486C139.199 0.979424 139.11 2.93827 139.11 5.38683V7.69136C139.11 9.82305 139.556 10.7161 140.329 11.3498C141.103 11.9835 142.025 12.07 142.709 12.07C143.393 12.07 144.315 11.8971 144.939 11.2922C145.832 10.4568 146.01 9.39095 146.01 7.25926V5.41564C146.01 2.96708 145.891 1.09465 145.772 0.432099C146.01 0.460906 146.456 0.460906 146.724 0.460906C147.289 0.460906 147.795 0.432099 147.944 0.403293C147.825 1.00823 147.735 2.96708 147.735 5.41564V7.28807C147.735 9.30453 147.587 11.2922 145.981 12.5885C144.91 13.4815 143.542 13.6831 142.322 13.6831C140.924 13.6831 139.377 13.3951 138.396 12.5309C137.504 11.7531 136.849 10.6296 136.849 8.15226V5.41564C136.849 2.96708 136.73 0.979424 136.611 0.432099C136.849 0.432099 137.266 0.432099 137.652 0.432099Z" fill="#F2F2F2"/>
<path d="M157.64 6.5679C157.64 6.71193 157.67 6.71193 157.7 6.76955C158.027 6.85597 158.77 6.91358 159.633 6.91358C160.109 6.91358 160.406 6.85597 160.614 6.71193C161.209 6.27984 161.774 5.53086 161.774 4.40741C161.774 2.59259 160.466 1.67078 158.83 1.67078C158.354 1.67078 157.908 1.69959 157.7 1.7284C157.64 1.7572 157.64 1.78601 157.64 1.84362V6.5679ZM155.469 5.38683C155.469 2.93827 155.409 1.06584 155.201 0.403293C155.618 0.432099 155.945 0.432099 156.302 0.432099C156.629 0.432099 158.235 0.374486 158.979 0.374486C160.406 0.374486 161.566 0.576132 162.31 1.00823C163.232 1.55556 164.005 2.53498 164.005 3.88889C164.005 5.32922 163.232 6.5679 161.804 7.46091C162.875 8.90123 164.094 10.6008 165.284 11.8395C166.087 12.7037 166.623 13.1934 166.98 13.3663C166.682 13.4815 165.968 13.5103 165.403 13.5103C164.332 13.5103 163.827 13.2222 163.172 12.6173C162.161 11.6667 160.644 9.24691 159.93 8.3251C159.871 8.23868 159.811 8.20988 159.722 8.20988C159.336 8.20988 158.354 8.20988 157.7 8.18107C157.64 8.18107 157.64 8.20988 157.64 8.2963V8.7572C157.64 10.8313 157.729 12.6173 157.848 13.4239C157.61 13.3951 157.194 13.3951 156.778 13.3951C156.302 13.3951 155.528 13.4239 155.261 13.4527C155.38 12.7325 155.469 10.6584 155.469 8.44033V5.38683Z" fill="#F2F2F2"/>
</g>
<defs>
<clipPath id="clip0_1427_1034">
<rect width="211" height="42" fill="white"/>
</clipPath>
</defs>
</svg>
