<svg width="40" height="40" viewBox="0 0 40 40" fill="none" xmlns="http://www.w3.org/2000/svg">
<g filter="url(#filter0_d)">
<rect x="2" y="1" width="36" height="36" rx="3" fill="#0A66C2"/>
<path d="M9.375 30.694H13.875V14.194H9.375V30.694Z" fill="white"/>
<path d="M9 9.646C9 11.107 10.176 12.292 11.625 12.292C13.0755 12.292 14.25 11.107 14.25 9.646C14.25 8.185 13.074 7 11.625 7C10.176 7 9 8.185 9 9.646Z" fill="white"/>
<path d="M27.375 30.694H31.875V20.5555C31.875 12.676 23.469 12.9625 21.375 16.8415V14.194H16.875V30.694H21.375V22.288C21.375 17.6185 27.375 17.236 27.375 22.288V30.694Z" fill="white"/>
</g>
<defs>
<filter id="filter0_d" x="0" y="0" width="40" height="40" filterUnits="userSpaceOnUse" color-interpolation-filters="sRGB">
<feFlood flood-opacity="0" result="BackgroundImageFix"/>
<feColorMatrix in="SourceAlpha" type="matrix" values="0 0 0 0 0 0 0 0 0 0 0 0 0 0 0 0 0 0 127 0" result="hardAlpha"/>
<feOffset dy="1"/>
<feGaussianBlur stdDeviation="1"/>
<feColorMatrix type="matrix" values="0 0 0 0 0 0 0 0 0 0 0 0 0 0 0 0 0 0 0.2 0"/>
<feBlend mode="normal" in2="BackgroundImageFix" result="effect1_dropShadow"/>
<feBlend mode="normal" in="SourceGraphic" in2="effect1_dropShadow" result="shape"/>
</filter>
</defs>
</svg>
